<svg viewBox="4 -4.5 20 20" xmlns="http://www.w3.org/2000/svg" style="enable-background:new 0 0 24 24;" xml:space="preserve">
  <path fill="currentColor" d="M12.59 10.25V0c0-.32.1-.51.29-.57 3.21-.76 6.46 1.48 6.76 4.85 3.14-1.33 5.87 2.66 3.43 5.06-.62.61-1.36.91-2.22.91H12.75c-.1-.03-.16-.14-.16-.25zM10.41 9.95c0 .73 1.38.74 1.38 0V0.4c0-.91-1.38-.91-1.38 0v9.55zM8.27 9.95c0 .71 1.38.74 1.38 0V4.27c0-.91-1.38-.91-1.38 0v5.68zM6.14 9.65c0 .73 1.37.74 1.37 0V3.42c0-.88-1.37-.89-1.37 0v6.23zM4 8.51c0 .85 1.37 1.07 1.37 0V5.84c0-.91-1.37-.91-1.37 0v2.67z"/>
</svg>
