<svg style="fill:currentColor;" viewBox="4 -4 20 20" xmlns="http://www.w3.org/2000/svg">
  <path d="M11.988,8.586v-5.612c1.993,0.938,3.536,1.843,5.361,2.819c-1.505,0.835-3.368,1.772-5.361,2.793zM23.091,0.183
    c-0.343-0.453-0.929-0.805-1.552-0.922c-1.833-0.348-13.267-0.349-15.099,0c-0.5,0.094-0.945,0.321-1.327,0.673
    c-1.612,1.496-1.107,9.518-0.719,10.818c0.163,0.562,0.374,0.968,0.64,1.234c0.343,0.352,0.812,0.595,1.351,0.703
    c1.509,0.312,9.284,0.486,15.122,0.047c0.538-0.094,1.014-0.344,1.389-0.711c1.49-1.49,1.388-9.963,0.195-11.842z"/>
</svg>
